<svg width="23" height="34" viewBox="0 0 23 34" fill="none" xmlns="http://www.w3.org/2000/svg">
<path d="M11.747 0.50254L11.7471 0.502542C15.58 0.580729 19.0265 2.62475 20.9699 5.97855C22.9575 9.40861 23.0114 13.5239 21.1157 16.9941L12.8226 32.1733L12.8214 32.1756L12.8161 32.185L12.8154 32.1861C12.5395 32.6657 12.0508 32.9484 11.5001 32.9484C10.9493 32.9484 10.4606 32.6658 10.1847 32.1861L10.184 32.1851L10.1788 32.1756L10.1774 32.1732L1.88441 16.9941C-0.0114549 13.5239 0.0425116 9.40861 2.03013 5.97856C3.97359 2.62475 7.42009 0.580728 11.2529 0.502542L11.253 0.50254C11.4173 0.499153 11.5827 0.499153 11.747 0.50254ZM6.29632 10.4526C6.29632 13.3224 8.63023 15.6563 11.5 15.6563C14.3698 15.6563 16.7037 13.3224 16.7037 10.4526C16.7037 7.58288 14.3698 5.24897 11.5 5.24897C8.63023 5.24897 6.29632 7.58288 6.29632 10.4526Z" fill="#1323B4" stroke="#1323B4"/>
</svg>
